<svg xmlns="http://www.w3.org/2000/svg" width="200" height="50" viewBox="0 0 200 50">
  <g id="Group_630" data-name="Group 630" transform="translate(-7180 -15107)">
    <rect id="Rectangle_451" data-name="Rectangle 451" width="200" height="50" transform="translate(7180 15107)" fill="none"/>
    <g id="Group_629" data-name="Group 629" transform="translate(7069.157 14755.298)">
      <path id="Path_573" data-name="Path 573" d="M404.914,387.526a1.782,1.782,0,1,1-1.8,1.773,1.772,1.772,0,0,1,1.8-1.773m0,3.3a1.521,1.521,0,1,0-1.474-1.53A1.471,1.471,0,0,0,404.914,390.829Zm.943-1.177a.892.892,0,0,1-.887.748,1.027,1.027,0,0,1-1.058-1.091,1,1,0,0,1,1.044-1.086.84.84,0,0,1,.9.724h-.3a.574.574,0,0,0-.591-.462.726.726,0,0,0-.724.815.77.77,0,0,0,.734.839.563.563,0,0,0,.582-.486Z" transform="translate(-144.807 -14.966)" fill="#b98c1c"/>
      <path id="Path_574" data-name="Path 574" d="M453.535,376.7a18.449,18.449,0,1,1-18.45-18.449,18.449,18.449,0,0,1,18.45,18.449" transform="translate(-151.719 0)" fill="#762414" fill-rule="evenodd"/>
      <path id="Path_575" data-name="Path 575" d="M444.965,364.333v-5.294h-.037a9.023,9.023,0,0,0,0,18.044h.037V370.8c6.934,1.169,12.152,6.263,12.152,12.371,0,4.976-3.466,9.277-8.5,11.333,6.282-2.385,10.7-8.023,10.7-14.6,0-7.791-6.2-14.263-14.349-15.57" transform="translate(-161.635 -0.401)" fill="#fff" fill-rule="evenodd"/>
      <path id="Path_576" data-name="Path 576" d="M439.485,377.942h-.037v6.293c-6.934-1.172-12.153-6.275-12.153-12.395,0-4.986,3.758-9.368,8.675-11.277-6.15,2.388-10.872,7.96-10.872,14.552,0,7.806,6.2,14.29,14.35,15.6v5.3h.037a9.041,9.041,0,0,0,0-18.08" transform="translate(-156.044 -1.181)" fill="#fff" fill-rule="evenodd"/>
      <path id="Path_577" data-name="Path 577" d="M446.237,395.256c4.443-2.213,7.487-5.626,7.588-10.855.118-6.105-5.219-11.2-12.154-12.37v6.281h-.037a9.045,9.045,0,0,1-4.39-16.867c-4.394,2.242-7.654,6.3-7.654,10.847,0,6.12,5.219,11.223,12.154,12.4v-6.293h.037a8.968,8.968,0,0,1,8.9,9.041,9.061,9.061,0,0,1-4.44,7.823" transform="translate(-158.341 -1.631)" fill="#762414"/>
      <path id="Path_578" data-name="Path 578" d="M119.87,409.744c1.195-.062,1.482-.536,2.08-1.792l5.85-12.214h.514l5.747,12.275c.433.927.989,1.73,2.2,1.73v.412h-6.076v-.412h.206c1.174,0,1.441-.495,1.441-.886a15.034,15.034,0,0,0-1.42-3.377h-6.2a25.082,25.082,0,0,0-1.276,3.4c0,.432.185.865,1.482.865h.165v.412H119.87Zm4.758-5.129h5.4l-2.718-5.911Z" transform="translate(0 -19.164)" fill="#b98c1c"/>
      <path id="Path_579" data-name="Path 579" d="M168.131,403.046a7.066,7.066,0,0,1-5.374,7.064c.534.659,1.771,1.359,4.757,1.359l.083.536c-.454.041-.886.083-1.319.083a13.315,13.315,0,0,1-7.455-1.936,7.027,7.027,0,0,1-5.705-7.105,7.507,7.507,0,1,1,15.014,0m-12.5-.309c0,3.418,1.173,6.858,5,6.858,3.811,0,4.984-3.439,4.984-6.858,0-3.4-1.482-6.488-4.984-6.488C157.113,396.249,155.63,399.338,155.63,402.737Z" transform="translate(-16.997 -19.035)" fill="#b98c1c"/>
      <path id="Path_580" data-name="Path 580" d="M184.72,396.161h6.447v.412c-1.69,0-2.1.474-2.1,2.039v6.3c0,2.718.762,5.025,4.387,5.025,2.822,0,4.448-1.956,4.448-5.293v-5.087c0-2.1-.062-2.9-2.2-2.986v-.412h5.087v.412c-1.874.083-1.957,1.112-1.957,2.821v4.964c0,4.16-1.709,6.343-6.013,6.343-3.46,0-5.973-1.38-5.973-5.231v-6.179c0-2.019-.1-2.719-2.121-2.719Z" transform="translate(-33.154 -19.38)" fill="#b98c1c"/>
      <path id="Path_581" data-name="Path 581" d="M214.172,409.744c1.2-.062,1.483-.536,2.08-1.792l5.85-12.214h.516l5.746,12.275c.432.927.988,1.73,2.2,1.73v.412H224.49v-.412h.206c1.174,0,1.442-.495,1.442-.886a15.056,15.056,0,0,0-1.42-3.377h-6.2a25.013,25.013,0,0,0-1.276,3.4c0,.432.185.865,1.482.865h.165v.412h-4.717Zm4.758-5.129h5.4l-2.719-5.911Z" transform="translate(-48.211 -19.164)" fill="#b98c1c"/>
      <path id="Path_582" data-name="Path 582" d="M248.472,409.959c1.649,0,2.225-.329,2.225-2.018v-9.35c0-1.689-.577-2.019-2.225-2.019v-.412h5.459c2.6,0,6.261.248,6.261,3.708,0,2.986-2.863,4.057-5.417,4.057h-1.853v4.016c0,1.689.576,2.018,2.224,2.018v.412h-6.674Zm4.449-6.8h.865c2.163,0,3.893-.8,3.893-3.233a2.863,2.863,0,0,0-3.152-3.007c-1.545,0-1.607.083-1.607,1.544Z" transform="translate(-65.746 -19.38)" fill="#b98c1c"/>
      <path id="Path_583" data-name="Path 583" d="M273.166,409.96c1.647,0,2.224-.33,2.224-2.018v-9.351c0-1.689-.577-2.019-2.224-2.019v-.412h6.673v.412c-1.648,0-2.224.329-2.224,2.019v3.852h7.352v-3.852c0-1.689-.576-2.019-2.223-2.019v-.412h6.673v.412c-1.648,0-2.224.329-2.224,2.019v9.351c0,1.688.576,2.018,2.224,2.018v.411h-6.673v-.411c1.647,0,2.223-.33,2.223-2.018v-4.634h-7.352v4.634c0,1.688.577,2.018,2.224,2.018v.411h-6.673Z" transform="translate(-78.371 -19.38)" fill="#b98c1c"/>
      <path id="Path_584" data-name="Path 584" d="M307.171,409.744c1.195-.062,1.483-.536,2.08-1.792l5.85-12.214h.514l5.747,12.275c.432.927.988,1.73,2.2,1.73v.412h-6.076v-.412h.206c1.173,0,1.442-.495,1.442-.886a15.041,15.041,0,0,0-1.421-3.377h-6.2a25.086,25.086,0,0,0-1.276,3.4c0,.432.185.865,1.482.865h.165v.412h-4.717Zm4.758-5.129h5.395l-2.718-5.911Z" transform="translate(-95.755 -19.164)" fill="#b98c1c"/>
      <path id="Path_585" data-name="Path 585" d="M356.969,410.371h-3.336l-5.376-6.343h-1.874v3.913c0,1.689.576,2.018,2.224,2.018v.412h-6.673v-.412c1.647,0,2.224-.329,2.224-2.018v-9.35c0-1.689-.577-2.019-2.224-2.019v-.412h6.755c2.574,0,5.7.165,5.7,3.481,0,2.347-1.544,3.419-3.769,3.872l4.53,5.315a2.9,2.9,0,0,0,1.813,1.132Zm-10.586-7.208h1.153c2.224,0,4.345-.72,4.345-3.233,0-2.327-1.853-3.007-3.893-3.007-1.359,0-1.606.062-1.606,1.029Z" transform="translate(-113.528 -19.38)" fill="#b98c1c"/>
      <path id="Path_586" data-name="Path 586" d="M373.244,396.161h4.119l5.108,10.833,5.087-10.833h4.181v.412c-1.628,0-2.121.432-2.121,2.039v8.876c0,1.771.123,2.411,2.121,2.472v.412H385.5v-.412c1.915,0,2-.927,2-2.472v-9.123h-.041l-5.437,12.007h-.35l-5.479-11.533h-.041v8.237c0,2.081,0,2.823,1.977,2.884v.412h-4.881v-.412c1.977-.062,1.977-.8,1.977-2.884V399.25c0-1.874-.1-2.677-1.977-2.677Z" transform="translate(-129.535 -19.38)" fill="#b98c1c"/>
    </g>
  </g>
</svg>
